HIERARCHY
ROOT hip
{
  OFFSET 0.0 0.0 0.0
  CHANNELS 6 Xposition Yposition Zposition Zrotation Yrotation Xrotation
  JOINT torso
  {
    OFFSET 0.0 0.0 0.0
    CHANNELS 3 Zrotation Xrotation Yrotation
    JOINT neck
    {
      OFFSET -31.42098999999993 328.8025209999999 74.3554680000002
      CHANNELS 3 Zrotation Xrotation Yrotation
      JOINT head
      {
        OFFSET 3.3519900000001144 303.81732099999994 206.53942900000015
        CHANNELS 3 Zrotation Xrotation Yrotation
        End Site
        {
          OFFSET 0.0 0.0 0.0
        }
      }
    }
    JOINT left_collar
    {
      OFFSET -31.42098999999993 328.8025209999999 74.3554680000002
      CHANNELS 3 Zrotation Xrotation Yrotation
      JOINT left_upper_arm
      {
        OFFSET -124.490479 -8.162841999999841 8.226441000000023
        CHANNELS 3 Zrotation Xrotation Yrotation
        JOINT left_forearm
        {
          OFFSET -253.595764 -1.5758060000000569 105.0729980000001
          CHANNELS 3 Zrotation Xrotation Yrotation
          JOINT left_hand
          {
            OFFSET -269.48803699999996 0.1478270000000066 -55.346191999999974
            CHANNELS 3 Zrotation Xrotation Yrotation
            End Site
            {
              OFFSET 0.0 0.0 0.0
            }
          }
        }
      }
    }
    JOINT right_collar
    {
      OFFSET -31.42098999999993 328.8025209999999 74.3554680000002
      CHANNELS 3 Zrotation Xrotation Yrotation
      JOINT right_upper_arm
      {
        OFFSET 162.02484099999998 0.46441600000002836 2.2303470000001653
        CHANNELS 3 Zrotation Xrotation Yrotation
        JOINT right_forearm
        {
          OFFSET 240.01246700000004 -25.835875999999985 121.34179699999959
          CHANNELS 3 Zrotation Xrotation Yrotation
          JOINT right_hand
          {
            OFFSET 252.48539699999992 18.910399999999868 -67.53466800000001
            CHANNELS 3 Zrotation Xrotation Yrotation
            End Site
            {
              OFFSET 0.0 0.0 0.0
            }
          }
        }
      }
    }
  }
}
MOTION
Frames: 8
Frame Time: 0.01
-424.43522055917845 219.78145248918875 627.3562796201655 3.8626269977847656 0.07130973678566323 3.335037924929368 -0.6498468359019367 -0.7470024184010214 0.07964784667090176 -1.8671776242233407 -7.9025433805760095 1.41928952520036 0.0 0.0 0.0 4.861843798385528 -0.27661153010039424 5.533338451329465 39.35089427248515 7.770733406695413 23.182181097038796 43.801393675020044 -3.8319174807160326 -13.714213200352624 0.0 0.0 0.0 1.9889976448512479 -0.12383996444965369 4.762599580996832 -27.070217004537923 6.841878607275204 -19.035236380053554 -3.0454242814090065 -3.906126168018066 69.24081261265667 0.0 0.0 0.0
-424.2186611173857 219.77980275106293 627.5310626057352 3.9002800811995573 0.06985483773944319 3.1707605736922764 -0.6784223857698982 -0.7586532089248439 0.0852367313058105 -1.8958939978062543 -7.878242803979316 1.4393959604779252 0.0 0.0 0.0 4.852687047330404 -0.2714993571624943 5.4845051748473646 39.34619296299501 7.781579913221746 23.15056829337901 43.80069581293935 -3.8252238347745213 -13.73062721676 0.0 0.0 0.0 1.9720387187889883 -0.12180335284733669 4.7081274348589375 -27.100926112466464 6.832235031280987 -19.090266922018127 -3.1322391909415104 -3.879644800992677 69.33752042635523 0.0 0.0 0.0
-424.0082097595486 219.77765555475526 627.708277851452 3.9357507189900947 0.06918949462407073 3.012423115498223 -0.704578715618475 -0.7723177404221805 0.09008886995658201 -1.9244501045521734 -7.852691065872646 1.4593587830062662 0.0 0.0 0.0 4.8428611562160215 -0.2661454512865828 5.4332446752027845 39.34217001245196 7.7925462046980085 23.119025341881027 43.80030451296185 -3.8182483471667137 -13.747813215347175 0.0 0.0 0.0 1.9541902559838065 -0.11965791278680041 4.649819938939921 -27.129674017498722 6.822768302154768 -19.1429105152517 -3.2160060028914237 -3.853985910635892 69.43180022827792 0.0 0.0 0.0
-423.8036628850704 219.7749718867945 627.8879995955375 3.9684595911917473 0.06908423185328862 2.8589408369763576 -0.727887235884754 -0.7875475535876635 0.09414523164867701 -1.9530731211590848 -7.826224283176273 1.4793462951614695 0.0 0.0 0.0 4.832694683168145 -0.26070156317297544 5.381008111709215 39.338716761061036 7.803681837616707 23.08735877056916 43.80020286141595 -3.8110379803735346 -13.765650516510116 0.0 0.0 0.0 1.9357516704709175 -0.11745032333077285 4.589058487232591 -27.1564400772831 6.813383530515518 -19.193418603514928 -3.2974739352086657 -3.828890388870891 69.52359658629781 0.0 0.0 0.0
-423.6047771060901 219.7717395881659 628.070291932201 3.997851355686551 0.06933198796034162 2.709191807059666 -0.7479526940242807 -0.8038984390678968 0.09735336491235938 -1.9819779374210216 -7.799196870269936 1.4995184273951292 0.0 0.0 0.0 4.822515839160501 -0.25531871580017385 5.329249816175357 39.335724903469334 7.8150287673929935 23.055395203277023 43.80038053819446 -3.80364626212462 -13.78400372876526 0.0 0.0 0.0 1.917047781439961 -0.11522808290422763 4.527269746668763 -27.18124315511293 6.803982882494746 -19.2420863134438 -3.377422404039855 -3.8040857454572743 69.61286258058698 0.0 0.0 0.0
-423.41128155121356 219.767971386254 628.2552084254144 4.023404799696394 0.06975460671169795 2.5620473461526707 -0.7644189892420016 -0.8209427995669282 0.09966773762978635 -2.011360593738678 -7.771973777880576 1.5200219145114497 0.0 0.0 0.0 4.8126439988996195 -0.2501433478347373 5.279390175306956 39.33308988143676 7.8266184758025155 23.02299100800625 43.800836030690604 -3.7961323331809176 -13.802725624917418 0.0 0.0 0.0 1.8984220777688285 -0.1130382815179895 4.465891431779978 -27.204141537130642 6.79446815194514 -19.28924514628562 -3.45664091861647 -3.779293551074377 69.69956297193686 0.0 0.0 0.0
-423.22289071337457 219.7637014964314 628.4427919234203 4.044643467540807 0.07020729110750606 2.416401310953462 -0.776975360652783 -0.83828023278802 0.10105036642613469 -2.041392591120671 -7.74492246275956 1.5409860959156993 0.0 0.0 0.0 4.803381574511534 -0.24531377243083408 5.232780377866985 39.33071418672188 7.838469507742309 22.990040806358856 43.80157841236253 -3.788559829163756 -13.821660320339351 0.0 0.0 0.0 1.8802291442309558 -0.11092647456481687 4.406338606170471 -27.225231554975935 6.784743306975102 -19.335254612155865 -3.5359086409699088 -3.7542370790060406 69.78367672141324 0.0 0.0 0.0
-423.03931736789445 219.75898089923604 628.6330747153612 4.061146915917958 0.07058095439368585 2.2711980104927294 -0.7853630726221227 -0.8555462446170015 0.1014717582253028 -2.072216083468097 -7.7184046432295546 1.5625193458396947 0.0 0.0 0.0 4.795006431363278 -0.24095697506416197 5.190669424924219 39.32851041750295 7.8505855541652485 22.956484389485333 43.80262853693871 -3.780995608631259 -13.840646689936523 0.0 0.0 0.0 1.8628262625871057 -0.10893567093844853 4.349970661534301 -27.244644985013437 6.774716982754548 -19.380492942386816 -3.615974126451559 -3.728648943499989 69.86519872297264 0.0 0.0 0.0
